<?xml version="1.0" standalone="no"?>
<!DOCTYPE svg PUBLIC "-//W3C//DTD SVG 20010904//EN"
 "http://www.w3.org/TR/2001/REC-SVG-20010904/DTD/svg10.dtd">
<svg version="1.0" xmlns="http://www.w3.org/2000/svg"
 width="500.000000pt" height="500.000000pt" viewBox="0 0 500.000000 500.000000"
 preserveAspectRatio="xMidYMid meet">
<metadata>
Created by potrace 1.14, written by Peter Selinger 2001-2017
</metadata>
<g transform="translate(0.000000,500.000000) scale(0.100000,-0.100000)"
fill="#000000" stroke="none">
<path d="M2328 4695 c-2 -2 -82 -6 -178 -9 -433 -16 -677 -69 -947 -205 -83
-41 -233 -138 -288 -186 -50 -43 -170 -162 -186 -183 -8 -11 -34 -45 -58 -77
-109 -143 -204 -331 -252 -497 -7 -27 -17 -48 -22 -48 -4 0 -5 -4 -2 -10 3 -5
1 -27 -4 -47 -6 -21 -13 -53 -16 -72 -3 -19 -7 -37 -9 -40 -10 -15 -33 -241
-40 -388 -2 -39 -7 -76 -11 -82 -3 -6 -2 -11 4 -11 6 0 8 -6 6 -12 -3 -7 -6
-60 -8 -118 -3 -80 -7 -104 -17 -102 -10 2 -11 0 -2 -11 8 -9 13 -87 17 -226
2 -117 7 -216 10 -222 4 -5 1 -9 -5 -9 -6 0 -8 -5 -5 -10 7 -11 9 -37 20 -195
7 -112 17 -193 35 -280 6 -27 8 -56 5 -63 -3 -7 0 -10 5 -7 6 3 10 -3 10 -13
0 -11 11 -52 24 -91 13 -39 22 -71 20 -71 -3 0 2 -13 11 -30 9 -16 12 -30 8
-30 -5 0 -2 -4 5 -8 7 -5 14 -22 15 -39 1 -17 5 -29 8 -27 10 6 30 -46 23 -58
-5 -7 -2 -8 6 -3 10 6 12 4 7 -9 -4 -9 -3 -15 2 -12 5 3 14 -6 20 -22 6 -15
22 -45 36 -67 13 -21 21 -44 18 -50 -4 -5 -3 -7 2 -3 5 5 24 -16 44 -45 19
-28 40 -57 45 -64 32 -37 36 -44 30 -55 -4 -6 -3 -8 4 -4 6 3 31 -15 55 -41
88 -95 103 -109 159 -152 32 -24 56 -47 53 -51 -3 -4 3 -7 13 -6 9 0 16 -4 15
-9 -1 -6 8 -12 20 -12 12 -1 26 -8 32 -15 28 -34 313 -168 393 -184 18 -4 29
-11 25 -17 -3 -5 -2 -7 4 -4 6 4 25 2 44 -4 19 -5 45 -12 59 -14 34 -6 65 -13
65 -15 0 -1 13 -3 29 -5 16 -2 36 -7 45 -11 9 -4 29 -6 44 -5 15 2 35 -3 44
-11 9 -7 14 -8 11 -3 -9 14 62 6 81 -9 11 -8 13 -8 8 1 -5 8 0 11 13 10 11 -1
20 -4 20 -7 0 -3 21 -5 48 -4 26 1 50 -3 54 -10 5 -6 8 -7 8 -1 0 6 20 10 48
8 290 -13 407 -16 522 -9 30 2 61 -2 69 -8 11 -8 13 -8 8 0 -5 9 16 12 74 13
45 1 85 4 90 7 5 3 9 -1 9 -8 0 -8 3 -9 8 -3 8 12 43 12 62 0 8 -5 11 -4 6 3
-4 7 8 11 36 11 53 0 156 8 183 14 17 4 120 17 165 22 9 0 20 4 25 7 6 3 26 9
46 12 20 3 48 10 63 16 36 13 49 13 41 -2 -4 -7 0 -5 9 6 8 10 26 19 40 20 14
0 26 4 26 9 0 4 9 7 19 7 11 0 23 5 26 10 3 6 13 10 20 10 19 0 182 78 217
103 15 12 32 16 40 12 7 -5 10 -5 6 0 -4 4 21 26 55 48 34 22 67 46 73 55 6 8
16 12 23 8 7 -5 10 -2 9 6 -2 7 5 12 14 12 10 -1 16 2 15 6 -4 12 146 159 157
153 5 -3 6 -2 3 4 -3 5 4 20 16 34 12 13 34 40 49 61 15 20 35 43 44 52 8 9
13 16 9 16 -3 0 2 11 11 25 9 14 21 22 27 18 5 -3 7 -1 3 5 -7 11 12 62 24 62
3 0 12 16 20 35 7 19 18 31 23 28 6 -3 7 -1 3 5 -3 6 3 27 14 47 11 19 20 42
20 51 0 8 3 13 8 11 4 -3 8 5 8 18 1 13 9 37 17 54 8 17 19 45 22 63 4 18 10
38 13 43 7 11 8 14 17 60 3 17 10 46 15 65 5 19 12 52 16 74 3 21 7 48 10 60
40 207 52 1055 19 1346 -26 224 -26 220 -50 318 -8 35 -13 68 -9 73 3 5 0 9
-5 9 -6 0 -14 18 -17 40 -4 22 -11 43 -15 46 -5 3 -9 13 -9 22 -1 23 -76 190
-124 277 -98 174 -287 382 -446 491 -237 163 -477 251 -820 299 -42 6 -159 15
-270 21 -116 6 -578 13 -582 9z"/>
<path d="M630 919 c0 -5 5 -7 10 -4 6 3 10 8 10 11 0 2 -4 4 -10 4 -5 0 -10
-5 -10 -11z"/>
<path d="M3625 320 c-3 -6 1 -7 9 -4 18 7 21 14 7 14 -6 0 -13 -4 -16 -10z"/>
<path d="M1746 278 c3 -5 10 -6 15 -3 13 9 11 12 -6 12 -8 0 -12 -4 -9 -9z"/>
<path d="M1830 281 c0 -6 4 -13 10 -16 6 -3 7 1 4 9 -7 18 -14 21 -14 7z"/>
</g>
</svg>
